nColumns=19
nRows=50
DataType=double
version=3
OpenSimVersion=4.1
endheader
time	ground_force_calcn_r_vx	ground_force_calcn_r_vy	ground_force_calcn_r_vz	ground_force_calcn_r_px	ground_force_calcn_r_py	ground_force_calcn_r_pz	ground_force_calcn_r_mx	ground_force_calcn_r_my	ground_force_calcn_r_mz	ground_force_calcn_l_vx	ground_force_calcn_l_vy	ground_force_calcn_l_vz	ground_force_calcn_l_px	ground_force_calcn_l_py	ground_force_calcn_l_pz	ground_force_calcn_l_mx	ground_force_calcn_l_my	ground_force_calcn_l_mz
10.09	0.664444	208.526	-34.7063	-0.270115	0	-0.413922	-0.000262544	-0.0823957	0.0137136	1.59722	242.255	38.3855	-0.267817	0	-0.7817	0.0082534	1.25182	0.198351
10.1	0.366727	207.224	-34.5106	-0.267979	0	-0.413376	-0.000127853	-0.0722451	0.0120315	1.43061	241.991	38.2698	-0.266012	0	-0.781991	0.00704009	1.19085	0.188328
10.11	0.0935384	206.324	-34.363	-0.265753	0	-0.412782	-2.94647e-05	-0.0649922	0.0108244	1.29537	242.18	38.2074	-0.264166	0	-0.782328	0.00606158	1.13326	0.178788
10.12	-0.138106	205.807	-34.2597	-0.263467	0	-0.412141	4.08317e-05	-0.0608478	0.010129	1.18458	242.817	38.2114	-0.262284	0	-0.782712	0.00527584	1.08145	0.170185
10.13	-0.31846	205.657	-34.1978	-0.261144	0	-0.411462	9.30392e-05	-0.0600835	0.00999101	1.09192	243.881	38.29	-0.260373	0	-0.783142	0.00464712	1.03794	0.162959
10.14	-0.446746	205.853	-34.1743	-0.258805	0	-0.410748	0.000136752	-0.0630131	0.010461	1.01442	245.341	38.4447	-0.258448	0	-0.783609	0.00415481	1.00486	0.15746
10.15	-0.528029	206.377	-34.1859	-0.256465	0	-0.410009	0.000179163	-0.0700251	0.0115995	0.953116	247.165	38.6711	-0.256528	0	-0.784101	0.00379334	0.983699	0.153908
10.16	-0.5691	207.211	-34.2282	-0.254144	0	-0.409251	0.00022424	-0.0816466	0.0134868	0.911806	249.33	38.9613	-0.254642	0	-0.78461	0.00356657	0.975267	0.152399
10.17	-0.575495	208.344	-34.2966	-0.251861	0	-0.408483	0.000272311	-0.0985838	0.0162284	0.894161	251.824	39.3063	-0.252817	0	-0.785125	0.00347833	0.97961	0.152903
10.18	-0.548679	209.772	-34.3875	-0.249643	0	-0.407712	0.000318274	-0.121683	0.0199473	0.900824	254.64	39.6978	-0.251075	0	-0.785638	0.0035242	0.996203	0.155305
10.19	-0.484432	211.499	-34.5008	-0.247517	0	-0.406948	0.000347729	-0.151815	0.0247649	0.928692	257.767	40.1289	-0.24943	0	-0.786147	0.00368984	1.02415	0.159439
10.2	-0.375165	213.54	-34.6427	-0.245512	0	-0.406195	0.000333497	-0.189823	0.0307951	0.971861	261.184	40.5952	-0.24789	0	-0.786647	0.00395284	1.06231	0.165112
10.21	-0.215424	215.917	-34.8282	-0.243646	0	-0.405456	0.00023564	-0.23618	0.0380967	1.02419	264.854	41.0959	-0.246457	0	-0.787141	0.00428988	1.10935	0.172132
10.22	-0.00659164	218.659	-35.0796	-0.241927	0	-0.40473	8.76485e-06	-0.290749	0.0466451	1.08099	268.731	41.6336	-0.245127	0	-0.787629	0.00468118	1.16372	0.180292
10.23	0.240657	221.787	-35.4232	-0.24035	0	-0.404012	-0.000382749	-0.352737	0.0563384	1.13961	272.753	42.2094	-0.243894	0	-0.788114	0.00511268	1.22366	0.189365
10.24	0.508829	225.309	-35.8845	-0.238897	0	-0.403297	-0.00095029	-0.420787	0.067018	1.20017	276.848	42.8196	-0.24275	0	-0.788594	0.00558065	1.28731	0.199106
10.25	0.777994	229.214	-36.4832	-0.237548	0	-0.402577	-0.00167389	-0.493163	0.0784952	1.26657	280.927	43.4523	-0.241689	0	-0.789065	0.0060995	1.35288	0.209255
10.26	1.02939	233.468	-37.2282	-0.236274	0	-0.401852	-0.00250392	-0.567897	0.0905555	1.34597	284.897	44.0879	-0.240705	0	-0.789524	0.00670246	1.41869	0.219543
10.27	1.24762	238.017	-38.1154	-0.235048	0	-0.401121	-0.00337041	-0.642998	0.102968	1.44562	288.662	44.7021	-0.239787	0	-0.789963	0.00742734	1.4831	0.229671
10.28	1.42017	242.791	-39.1271	-0.233841	0	-0.400389	-0.00419165	-0.7166	0.115484	1.56939	292.136	45.2695	-0.238917	0	-0.79038	0.0082972	1.5445	0.239336
10.29	1.53651	247.702	-40.2335	-0.232629	0	-0.399665	-0.00488252	-0.787113	0.127848	1.71561	295.241	45.7689	-0.238077	0	-0.790774	0.00930529	1.60136	0.248246
10.3	1.58894	252.653	-41.3952	-0.231393	0	-0.398958	-0.00536696	-0.853386	0.139821	1.8774	297.909	46.1845	-0.237241	0	-0.791144	0.0104119	1.65217	0.256134
10.31	1.57402	257.543	-42.5688	-0.230122	0	-0.39828	-0.00559093	-0.91479	0.151204	2.04429	300.089	46.5072	-0.236387	0	-0.791495	0.0115513	1.69565	0.262789
10.32	1.49442	262.269	-43.7112	-0.228809	0	-0.397641	-0.00553421	-0.971249	0.161873	2.2049	301.752	46.7342	-0.235492	0	-0.79183	0.0126482	1.73097	0.268086
10.33	1.35813	266.744	-44.7854	-0.227458	0	-0.39705	-0.00520933	-1.02314	0.171782	2.34939	302.897	46.8698	-0.234541	0	-0.792152	0.0136345	1.75784	0.272006
10.34	1.17567	270.895	-45.7648	-0.22607	0	-0.396512	-0.00464858	-1.07112	0.180954	2.46899	303.552	46.925	-0.233516	0	-0.792467	0.0144489	1.77644	0.274612
10.35	0.956592	274.667	-46.6338	-0.22465	0	-0.396026	-0.00388623	-1.11586	0.189453	2.55432	303.773	46.9177	-0.232411	0	-0.792778	0.0150276	1.78716	0.276027
10.36	0.707867	278.023	-47.3876	-0.223201	0	-0.395593	-0.00294814	-1.15792	0.197361	2.59497	303.634	46.8716	-0.231216	0	-0.793093	0.0153033	1.79063	0.276417
10.37	0.433619	280.944	-48.0301	-0.221725	0	-0.395205	-0.0018484	-1.19759	0.20474	2.58049	303.224	46.8144	-0.229926	0	-0.793415	0.015212	1.7875	0.27597
10.38	0.13573	283.428	-48.5709	-0.220226	0	-0.394858	-0.000591387	-1.23492	0.211627	2.50168	302.64	46.7746	-0.22854	0	-0.793753	0.0147017	1.77853	0.274881
10.39	-0.1855	285.491	-49.0238	-0.218701	0	-0.394544	0.000825037	-1.26976	0.21804	2.3521	301.977	46.7774	-0.227059	0	-0.794111	0.0137439	1.76453	0.273332
10.4	-0.531041	287.164	-49.405	-0.217152	0	-0.394259	0.0024073	-1.30177	0.223961	2.12883	301.326	46.8432	-0.225489	0	-0.794494	0.0123374	1.74629	0.271474
10.41	-0.902432	288.491	-49.7306	-0.215581	0	-0.393998	0.00416178	-1.33045	0.229345	1.83252	300.767	46.9862	-0.22384	0	-0.794905	0.0105087	1.72477	0.269446
10.42	-1.30041	289.528	-50.0166	-0.21399	0	-0.393755	0.00608818	-1.3555	0.234165	1.46762	300.364	47.2131	-0.222125	0	-0.795346	0.00831214	1.70117	0.2674
10.43	-1.72378	290.34	-50.2767	-0.212382	0	-0.39353	0.00817522	-1.37697	0.238443	1.04208	300.16	47.5232	-0.220356	0	-0.795813	0.00582189	1.67693	0.265502
10.44	-2.16869	290.994	-50.5227	-0.210766	0	-0.393319	0.010398	-1.3952	0.242236	0.56644	300.176	47.9076	-0.218552	0	-0.7963	0.0031205	1.65366	0.263922
10.45	-2.62927	291.558	-50.7641	-0.209152	0	-0.393122	0.0127222	-1.41076	0.245632	0.0525975	300.408	48.3499	-0.216725	0	-0.796804	0.00028593	1.63307	0.262839
10.46	-3.09883	292.098	-51.0088	-0.207553	0	-0.392938	0.0151107	-1.42435	0.248732	-0.48702	300.832	48.8275	-0.214894	0	-0.797316	-0.00261762	1.6169	0.262436
10.47	-3.57101	292.673	-51.2631	-0.205982	0	-0.392772	0.0175295	-1.43668	0.251642	-1.04035	301.405	49.3151	-0.213069	0	-0.797828	-0.00554534	1.60657	0.262862
10.48	-4.04126	293.329	-51.5322	-0.204447	0	-0.392621	0.019954	-1.44833	0.254444	-1.59729	302.074	49.7884	-0.211264	0	-0.798334	-0.00847593	1.60294	0.264199
10.49	-4.50803	294.097	-51.8198	-0.202957	0	-0.392484	0.0223746	-1.45968	0.257196	-2.14999	302.778	50.2266	-0.209485	0	-0.798827	-0.011406	1.60628	0.266459
10.5	-4.97251	294.987	-52.1266	-0.201514	0	-0.392358	0.0247943	-1.47089	0.259918	-2.69273	303.45	50.615	-0.207736	0	-0.799302	-0.0143417	1.6162	0.269579
10.51	-5.43699	295.993	-52.4519	-0.200119	0	-0.392242	0.0272206	-1.48191	0.262603	-3.22161	304.025	50.9454	-0.206018	0	-0.79976	-0.0172904	1.6317	0.273424
10.52	-5.90261	297.094	-52.7931	-0.198768	0	-0.392134	0.0296533	-1.49253	0.265221	-3.73309	304.435	51.2154	-0.204328	0	-0.8002	-0.0202496	1.65137	0.27781
10.53	-6.36722	298.259	-53.1468	-0.197461	0	-0.392031	0.0320739	-1.50243	0.267719	-4.22283	304.619	51.4263	-0.202662	0	-0.80062	-0.0232003	1.67358	0.282537
10.54	-6.82493	299.454	-53.5092	-0.196197	0	-0.391932	0.0344435	-1.51126	0.270045	-4.68625	304.528	51.582	-0.20102	0	-0.801023	-0.0261095	1.69668	0.287389
10.55	-7.26729	300.646	-53.8763	-0.194978	0	-0.391835	0.0367093	-1.51865	0.272145	-5.11953	304.138	51.6874	-0.199398	0	-0.801409	-0.0289385	1.71916	0.292167
10.56	-7.68518	301.799	-54.243	-0.193808	0	-0.391738	0.0388155	-1.5243	0.273965	-5.52035	303.449	51.748	-0.197794	0	-0.801776	-0.0316525	1.73991	0.296713
10.57	-8.07015	302.883	-54.6026	-0.192687	0	-0.391643	0.0407088	-1.52785	0.275436	-5.88855	302.484	51.7697	-0.196211	0	-0.802124	-0.0342291	1.75829	0.300929
10.58	-8.41537	303.869	-54.9465	-0.191619	0	-0.39155	0.042346	-1.52906	0.27649	-6.22642	301.288	51.758	-0.194654	0	-0.802452	-0.036665	1.77417	0.304783
